<svg version="1.0" xmlns="http://www.w3.org/2000/svg" width="693.333" height="693.333" viewBox="0 0 520 520"><path d="M237.5 4.7C207 8.3 190.2 12 169.3 19.6c-80.2 29-141 96.3-161.6 178.9C1.9 221.8.5 233.4.5 260s1.4 38.2 7.2 61.5c4.6 18.4 9.9 32.7 18.8 51 11.8 24.3 30.5 50.4 48.7 68.3l6.5 6.3 6.4-8.8c10.4-14.4 29.1-37.3 37.1-45.5 12.2-12.4 23.9-18.9 42.5-23.4 16.3-3.9 32.5-12.1 43.9-22.1 10.6-9.4 15.3-12.3 25.6-15.7 12-4.1 19-3 22.3 3.4 2 3.9 1.9 7.6-.5 12.5-4.1 8.4-11.3 14.1-38 29.8-17.4 10.3-14.4 12.2 20 13.3 11.3.4 21.5 1 22.7 1.5 1.6.6 2 1.4 1.6 3.1-2.2 8.9 10.9-16.6 14.2-27.7 3.8-12.8 8.8-22.9 13-26.1 4.6-3.5 10.4-4.3 12.8-1.6 1.7 1.9 1.5 2.9-5.8 28.7-4.2 14.7-7.5 26.9-7.2 27.1.5.6 11.6-24 14.2-31.6 1.2-3.6 3.7-12.7 5.5-20.4 3.8-15.6 5.7-18.9 12.1-20.6 4.3-1.2 8.3 0 10.2 3.1 1.2 2-7.5 44.1-10.5 50.9-1.1 2.5-2.6 6.1-3.4 8l-1.4 3.5 3.6-4c9-9.9 13.1-17.9 19.8-38.1 3.9-11.8 6.4-16.1 11.7-20 4-2.9 9.7-3.2 13-.6l2.2 1.9-2.7 8.9c-5.9 18.8-15.9 45.1-19.3 50.4l-3.5 5.5 5.3-6c17.9-20.1 25.5-26.5 31.7-26.5 4.6 0 6.7 1.9 5.8 5.2-.7 2.7-21.5 32.8-28.1 40.8-5.5 6.6-11.3 10.2-34.5 21.9-30.2 15.3-53.7 25.1-64.6 27-3.3.6-21.4 1.5-40.4 2.1-35.3 1.1-52.4 2.3-56.4 4.2-1.6.7-4.4 5.4-9.1 15.4-3.7 7.9-6.6 14.6-6.4 14.8 1.1.9 19.1 8.1 26.7 10.7 122.7 41.7 257-13.7 314.2-129.6 17.5-35.4 26.2-72.3 26.2-112 .1-41.5-8.2-77.1-26.8-114.4-12.4-25-28-46.7-47.9-66.6C390.7 30.7 324 3.4 255.1 4.1c-8 .1-15.9.4-17.6.6zm-34 87.8c3.3.8 9.8 3.4 14.5 5.6 8.5 4.1 8.8 4.5 66.5 62l58 57.8-9 9.1-9 9-71.7-71.7C213.3 124.8 181 92.2 181 91.8c0-1.4 16.4-.8 22.5.7zm133.8 1.4c16.7 5.9 29.5 16.8 36.6 31.2 9.3 18.9 9.4 37.8.1 56.7-3.2 6.3-6.2 10.5-13.2 17.7-5 5.2-9.5 9.5-10.2 9.5-1.4 0-87.6-86.1-87.6-87.6 0-.6 4.4-5.4 9.8-10.6 10.6-10.1 19.4-15.4 30.7-18.3 8.4-2.1 26-1.4 33.8 1.4zM242 169.5l74.5 74.5-8.3 8.2-8.2 8.3-76.5-76.5-76.6-76.5 3.5-3.1c3.6-3.1 14.2-9.3 16.1-9.4.6 0 34.5 33.5 75.5 74.5zM215.5 193l76 76-7 7-7 7-74.2-74.3-74.3-74.2 2.6-5.5c3-6.6 6.3-12 7.2-12 .4 0 34.9 34.2 76.7 76zm46 106l-7.5 7.5-58.4-58.5c-55.8-55.9-58.5-58.8-62-66-4.5-9.5-6.6-17.6-6.6-26v-6.5l71 71 71 71-7.5 7.5z"/></svg>