<?xml version="1.0" standalone="no"?>
<!DOCTYPE svg PUBLIC "-//W3C//DTD SVG 20010904//EN"
 "http://www.w3.org/TR/2001/REC-SVG-20010904/DTD/svg10.dtd">
<svg version="1.0" xmlns="http://www.w3.org/2000/svg"
 width="520.000000pt" height="520.000000pt" viewBox="0 0 520.000000 520.000000"
 preserveAspectRatio="xMidYMid meet">
<metadata>
Created by potrace 1.14, written by Peter Selinger 2001-2017
</metadata>
<g transform="translate(0.000000,520.000000) scale(0.100000,-0.100000)"
fill="#000000" stroke="none">
<path d="M2375 5153 c-305 -36 -473 -73 -682 -149 -802 -290 -1410 -963 -1616
-1789 -58 -233 -72 -349 -72 -615 0 -266 14 -382 72 -615 46 -184 99 -327 188
-510 118 -243 305 -504 487 -683 l65 -63 64 88 c104 144 291 373 371 455 122
124 239 189 425 234 163 39 325 121 439 221 106 94 153 123 256 157 120 41
190 30 223 -34 20 -39 19 -76 -5 -125 -41 -84 -113 -141 -380 -298 -174 -103
-144 -122 200 -133 113 -4 215 -10 227 -15 16 -6 20 -14 16 -31 -22 -89 109
166 142 277 38 128 88 229 130 261 46 35 104 43 128 16 17 -19 15 -29 -58
-287 -42 -147 -75 -269 -72 -271 5 -6 116 240 142 316 12 36 37 127 55 204 38
156 57 189 121 206 43 12 83 0 102 -31 12 -20 -75 -441 -105 -509 -11 -25 -26
-61 -34 -80 l-14 -35 36 40 c90 99 131 179 198 381 39 118 64 161 117 200 40
29 97 32 130 6 l22 -19 -27 -89 c-59 -188 -159 -451 -193 -504 l-35 -55 53 60
c179 201 255 265 317 265 46 0 67 -19 58 -52 -7 -27 -215 -328 -281 -408 -55
-66 -113 -102 -345 -219 -302 -153 -537 -251 -646 -270 -33 -6 -214 -15 -404
-21 -353 -11 -524 -23 -564 -42 -16 -7 -44 -54 -91 -154 -37 -79 -66 -146 -64
-148 11 -9 191 -81 267 -107 1227 -417 2570 137 3142 1296 175 354 262 723
262 1120 1 415 -82 771 -268 1144 -124 250 -280 467 -479 666 -488 488 -1155
761 -1844 754 -80 -1 -159 -4 -176 -6z m-340 -878 c33 -8 98 -34 145 -56 85
-41 88 -45 665 -620 l580 -578 -90 -91 -90 -90 -717 717 c-395 395 -718 721
-718 725 0 14 164 8 225 -7z m1338 -14 c167 -59 295 -168 366 -312 93 -189 94
-378 1 -567 -32 -63 -62 -105 -132 -177 -50 -52 -95 -95 -102 -95 -14 0 -876
861 -876 876 0 6 44 54 98 106 106 101 194 154 307 183 84 21 260 14 338 -14z
m-953 -756 l745 -745 -83 -82 -82 -83 -765 765 -766 765 35 31 c36 31 142 93
161 94 6 0 345 -335 755 -745z m-265 -235 l760 -760 -70 -70 -70 -70 -742 743
-743 742 26 55 c30 66 63 120 72 120 4 0 349 -342 767 -760z m460 -1060 l-75
-75 -584 585 c-558 559 -585 588 -620 660 -45 95 -66 176 -66 260 l0 65 710
-710 710 -710 -75 -75z"/>
</g>
</svg>
